<?xml version="1.0" encoding="utf-8" standalone="no"?>
<!DOCTYPE svg PUBLIC "-//W3C//DTD SVG 1.1//EN"
  "http://www.w3.org/Graphics/SVG/1.1/DTD/svg11.dtd">
<!-- Created with matplotlib (https://matplotlib.org/) -->
<svg height="345.6pt" version="1.1" viewBox="0 0 460.8 345.6" width="460.8pt" xmlns="http://www.w3.org/2000/svg" xmlns:xlink="http://www.w3.org/1999/xlink">
 <defs>
  <style type="text/css">
*{stroke-linecap:butt;stroke-linejoin:round;}
  </style>
 </defs>
 <g id="figure_1">
  <g id="patch_1">
   <path d="M 0 345.6 
L 460.8 345.6 
L 460.8 0 
L 0 0 
z
" style="fill:#ffffff;"/>
  </g>
  <g id="axes_1">
   <g id="patch_2">
    <path d="M 57.6 307.584 
L 414.72 307.584 
L 414.72 41.472 
L 57.6 41.472 
z
" style="fill:#ffffff;"/>
   </g>
   <g id="PathCollection_1">
    <path clip-path="url(#p502e999a1b)" d="M 83.632537 181.158725 
C 87.401743 181.158725 91.017081 179.661203 93.682313 176.995971 
C 96.347544 174.33074 97.845066 170.715402 97.845066 166.946195 
C 97.845066 163.176988 96.347544 159.561651 93.682313 156.896419 
C 91.017081 154.231187 87.401743 152.733666 83.632537 152.733666 
C 79.86333 152.733666 76.247992 154.231187 73.58276 156.896419 
C 70.917529 159.561651 69.420007 163.176988 69.420007 166.946195 
C 69.420007 170.715402 70.917529 174.33074 73.58276 176.995971 
C 76.247992 179.661203 79.86333 181.158725 83.632537 181.158725 
z
" style="fill:#482878;fill-opacity:0.5;stroke:#482878;stroke-opacity:0.5;"/>
    <path clip-path="url(#p502e999a1b)" d="M 93.054063 211.626475 
C 96.79004 211.626475 100.373504 210.142156 103.015238 207.500421 
C 105.656972 204.858687 107.141292 201.275223 107.141292 197.539247 
C 107.141292 193.80327 105.656972 190.219807 103.015238 187.578072 
C 100.373504 184.936338 96.79004 183.452019 93.054063 183.452019 
C 89.318087 183.452019 85.734623 184.936338 83.092889 187.578072 
C 80.451154 190.219807 78.966835 193.80327 78.966835 197.539247 
C 78.966835 201.275223 80.451154 204.858687 83.092889 207.500421 
C 85.734623 210.142156 89.318087 211.626475 93.054063 211.626475 
z
" style="fill:#482878;fill-opacity:0.5;stroke:#482878;stroke-opacity:0.5;"/>
    <path clip-path="url(#p502e999a1b)" d="M 102.47559 276.423034 
C 104.464613 276.423034 106.372439 275.632786 107.778891 274.226334 
C 109.185343 272.819883 109.97559 270.912057 109.97559 268.923034 
C 109.97559 266.93401 109.185343 265.026185 107.778891 263.619733 
C 106.372439 262.213281 104.464613 261.423034 102.47559 261.423034 
C 100.486567 261.423034 98.578741 262.213281 97.172289 263.619733 
C 95.765838 265.026185 94.97559 266.93401 94.97559 268.923034 
C 94.97559 270.912057 95.765838 272.819883 97.172289 274.226334 
C 98.578741 275.632786 100.486567 276.423034 102.47559 276.423034 
z
" style="fill:#3e4989;fill-opacity:0.5;stroke:#3e4989;stroke-opacity:0.5;"/>
    <path clip-path="url(#p502e999a1b)" d="M 111.897117 284.219559 
C 111.897117 284.219559 111.897117 284.219559 111.897117 284.219559 
C 111.897117 284.219559 111.897117 284.219559 111.897117 284.219559 
C 111.897117 284.219559 111.897117 284.219559 111.897117 284.219559 
C 111.897117 284.219559 111.897117 284.219559 111.897117 284.219559 
C 111.897117 284.219559 111.897117 284.219559 111.897117 284.219559 
C 111.897117 284.219559 111.897117 284.219559 111.897117 284.219559 
C 111.897117 284.219559 111.897117 284.219559 111.897117 284.219559 
C 111.897117 284.219559 111.897117 284.219559 111.897117 284.219559 
z
" style="fill:#440154;fill-opacity:0.5;stroke:#440154;stroke-opacity:0.5;"/>
    <path clip-path="url(#p502e999a1b)" d="M 121.318644 242.913599 
C 123.886462 242.913599 126.349454 241.893394 128.165176 240.077672 
C 129.980897 238.261951 131.001102 235.798958 131.001102 233.23114 
C 131.001102 230.663322 129.980897 228.20033 128.165176 226.384608 
C 126.349454 224.568887 123.886462 223.548682 121.318644 223.548682 
C 118.750826 223.548682 116.287833 224.568887 114.472112 226.384608 
C 112.65639 228.20033 111.636186 230.663322 111.636186 233.23114 
C 111.636186 235.798958 112.65639 238.261951 114.472112 240.077672 
C 116.287833 241.893394 118.750826 242.913599 121.318644 242.913599 
z
" style="fill:#31688e;fill-opacity:0.5;stroke:#31688e;stroke-opacity:0.5;"/>
    <path clip-path="url(#p502e999a1b)" d="M 130.740171 243.837742 
C 133.553074 243.837742 136.251148 242.720163 138.240171 240.73114 
C 140.229194 238.742117 141.346772 236.044044 141.346772 233.23114 
C 141.346772 230.418237 140.229194 227.720163 138.240171 225.73114 
C 136.251148 223.742117 133.553074 222.624539 130.740171 222.624539 
C 127.927267 222.624539 125.229194 223.742117 123.240171 225.73114 
C 121.251148 227.720163 120.133569 230.418237 120.133569 233.23114 
C 120.133569 236.044044 121.251148 238.742117 123.240171 240.73114 
C 125.229194 242.720163 127.927267 243.837742 130.740171 243.837742 
z
" style="fill:#31688e;fill-opacity:0.5;stroke:#31688e;stroke-opacity:0.5;"/>
    <path clip-path="url(#p502e999a1b)" d="M 140.161698 202.502711 
C 142.830252 202.502711 145.389869 201.442483 147.276822 199.55553 
C 149.163775 197.668577 150.224003 195.10896 150.224003 192.440405 
C 150.224003 189.77185 149.163775 187.212233 147.276822 185.32528 
C 145.389869 183.438327 142.830252 182.378099 140.161698 182.378099 
C 137.493143 182.378099 134.933526 183.438327 133.046573 185.32528 
C 131.15962 187.212233 130.099392 189.77185 130.099392 192.440405 
C 130.099392 195.10896 131.15962 197.668577 133.046573 199.55553 
C 134.933526 201.442483 137.493143 202.502711 140.161698 202.502711 
z
" style="fill:#31688e;fill-opacity:0.5;stroke:#31688e;stroke-opacity:0.5;"/>
    <path clip-path="url(#p502e999a1b)" d="M 149.583224 238.329982 
C 149.583224 238.329982 149.583224 238.329982 149.583224 238.329982 
C 149.583224 238.329982 149.583224 238.329982 149.583224 238.329982 
C 149.583224 238.329982 149.583224 238.329982 149.583224 238.329982 
C 149.583224 238.329982 149.583224 238.329982 149.583224 238.329982 
C 149.583224 238.329982 149.583224 238.329982 149.583224 238.329982 
C 149.583224 238.329982 149.583224 238.329982 149.583224 238.329982 
C 149.583224 238.329982 149.583224 238.329982 149.583224 238.329982 
C 149.583224 238.329982 149.583224 238.329982 149.583224 238.329982 
z
" style="fill:#440154;fill-opacity:0.5;stroke:#440154;stroke-opacity:0.5;"/>
    <path clip-path="url(#p502e999a1b)" d="M 159.004751 271.250965 
C 163.678812 271.250965 168.162065 269.393941 171.467125 266.088881 
C 174.772185 262.783821 176.629209 258.300569 176.629209 253.626508 
C 176.629209 248.952447 174.772185 244.469195 171.467125 241.164135 
C 168.162065 237.859074 163.678812 236.00205 159.004751 236.00205 
C 154.330691 236.00205 149.847438 237.859074 146.542378 241.164135 
C 143.237318 244.469195 141.380294 248.952447 141.380294 253.626508 
C 141.380294 258.300569 143.237318 262.783821 146.542378 266.088881 
C 149.847438 269.393941 154.330691 271.250965 159.004751 271.250965 
z
" style="fill:#482878;fill-opacity:0.5;stroke:#482878;stroke-opacity:0.5;"/>
    <path clip-path="url(#p502e999a1b)" d="M 168.426278 268.923034 
C 168.426278 268.923034 168.426278 268.923034 168.426278 268.923034 
C 168.426278 268.923034 168.426278 268.923034 168.426278 268.923034 
C 168.426278 268.923034 168.426278 268.923034 168.426278 268.923034 
C 168.426278 268.923034 168.426278 268.923034 168.426278 268.923034 
C 168.426278 268.923034 168.426278 268.923034 168.426278 268.923034 
C 168.426278 268.923034 168.426278 268.923034 168.426278 268.923034 
C 168.426278 268.923034 168.426278 268.923034 168.426278 268.923034 
C 168.426278 268.923034 168.426278 268.923034 168.426278 268.923034 
z
" style="fill:#440154;fill-opacity:0.5;stroke:#440154;stroke-opacity:0.5;"/>
    <path clip-path="url(#p502e999a1b)" d="M 177.847805 275.280631 
C 180.886088 275.280631 183.80034 274.073508 185.948731 271.925118 
C 188.097122 269.776727 189.304244 266.862475 189.304244 263.824192 
C 189.304244 260.785909 188.097122 257.871657 185.948731 255.723266 
C 183.80034 253.574875 180.886088 252.367752 177.847805 252.367752 
C 174.809522 252.367752 171.89527 253.574875 169.746879 255.723266 
C 167.598488 257.871657 166.391366 260.785909 166.391366 263.824192 
C 166.391366 266.862475 167.598488 269.776727 169.746879 271.925118 
C 171.89527 274.073508 174.809522 275.280631 177.847805 275.280631 
z
" style="fill:#31688e;fill-opacity:0.5;stroke:#31688e;stroke-opacity:0.5;"/>
    <path clip-path="url(#p502e999a1b)" d="M 187.269332 189.862255 
C 191.994513 189.862255 196.5268 187.984921 199.868007 184.643713 
C 203.209215 181.302505 205.08655 176.770219 205.08655 172.045037 
C 205.08655 167.319856 203.209215 162.78757 199.868007 159.446362 
C 196.5268 156.105154 191.994513 154.227819 187.269332 154.227819 
C 182.54415 154.227819 178.011864 156.105154 174.670656 159.446362 
C 171.329448 162.78757 169.452114 167.319856 169.452114 172.045037 
C 169.452114 176.770219 171.329448 181.302505 174.670656 184.643713 
C 178.011864 187.984921 182.54415 189.862255 187.269332 189.862255 
z
" style="fill:#482878;fill-opacity:0.5;stroke:#482878;stroke-opacity:0.5;"/>
    <path clip-path="url(#p502e999a1b)" d="M 196.690859 243.837742 
C 199.503762 243.837742 202.201835 242.720163 204.190859 240.73114 
C 206.179882 238.742117 207.29746 236.044044 207.29746 233.23114 
C 207.29746 230.418237 206.179882 227.720163 204.190859 225.73114 
C 202.201835 223.742117 199.503762 222.624539 196.690859 222.624539 
C 193.877955 222.624539 191.179882 223.742117 189.190859 225.73114 
C 187.201835 227.720163 186.084257 230.418237 186.084257 233.23114 
C 186.084257 236.044044 187.201835 238.742117 189.190859 240.73114 
C 191.179882 242.720163 193.877955 243.837742 196.690859 243.837742 
z
" style="fill:#26828e;fill-opacity:0.5;stroke:#26828e;stroke-opacity:0.5;"/>
    <path clip-path="url(#p502e999a1b)" d="M 206.112386 197.539247 
C 206.112386 197.539247 206.112386 197.539247 206.112386 197.539247 
C 206.112386 197.539247 206.112386 197.539247 206.112386 197.539247 
C 206.112386 197.539247 206.112386 197.539247 206.112386 197.539247 
C 206.112386 197.539247 206.112386 197.539247 206.112386 197.539247 
C 206.112386 197.539247 206.112386 197.539247 206.112386 197.539247 
C 206.112386 197.539247 206.112386 197.539247 206.112386 197.539247 
C 206.112386 197.539247 206.112386 197.539247 206.112386 197.539247 
C 206.112386 197.539247 206.112386 197.539247 206.112386 197.539247 
z
" style="fill:#440154;fill-opacity:0.5;stroke:#440154;stroke-opacity:0.5;"/>
    <path clip-path="url(#p502e999a1b)" d="M 215.533912 141.451986 
C 215.533912 141.451986 215.533912 141.451986 215.533912 141.451986 
C 215.533912 141.451986 215.533912 141.451986 215.533912 141.451986 
C 215.533912 141.451986 215.533912 141.451986 215.533912 141.451986 
C 215.533912 141.451986 215.533912 141.451986 215.533912 141.451986 
C 215.533912 141.451986 215.533912 141.451986 215.533912 141.451986 
C 215.533912 141.451986 215.533912 141.451986 215.533912 141.451986 
C 215.533912 141.451986 215.533912 141.451986 215.533912 141.451986 
C 215.533912 141.451986 215.533912 141.451986 215.533912 141.451986 
z
" style="fill:#440154;fill-opacity:0.5;stroke:#440154;stroke-opacity:0.5;"/>
    <path clip-path="url(#p502e999a1b)" d="M 224.955439 85.364725 
C 224.955439 85.364725 224.955439 85.364725 224.955439 85.364725 
C 224.955439 85.364725 224.955439 85.364725 224.955439 85.364725 
C 224.955439 85.364725 224.955439 85.364725 224.955439 85.364725 
C 224.955439 85.364725 224.955439 85.364725 224.955439 85.364725 
C 224.955439 85.364725 224.955439 85.364725 224.955439 85.364725 
C 224.955439 85.364725 224.955439 85.364725 224.955439 85.364725 
C 224.955439 85.364725 224.955439 85.364725 224.955439 85.364725 
C 224.955439 85.364725 224.955439 85.364725 224.955439 85.364725 
z
" style="fill:#440154;fill-opacity:0.5;stroke:#440154;stroke-opacity:0.5;"/>
    <path clip-path="url(#p502e999a1b)" d="M 234.376966 151.64967 
C 234.376966 151.64967 234.376966 151.64967 234.376966 151.64967 
C 234.376966 151.64967 234.376966 151.64967 234.376966 151.64967 
C 234.376966 151.64967 234.376966 151.64967 234.376966 151.64967 
C 234.376966 151.64967 234.376966 151.64967 234.376966 151.64967 
C 234.376966 151.64967 234.376966 151.64967 234.376966 151.64967 
C 234.376966 151.64967 234.376966 151.64967 234.376966 151.64967 
C 234.376966 151.64967 234.376966 151.64967 234.376966 151.64967 
C 234.376966 151.64967 234.376966 151.64967 234.376966 151.64967 
z
" style="fill:#440154;fill-opacity:0.5;stroke:#440154;stroke-opacity:0.5;"/>
    <path clip-path="url(#p502e999a1b)" d="M 243.798493 161.847353 
C 243.798493 161.847353 243.798493 161.847353 243.798493 161.847353 
C 243.798493 161.847353 243.798493 161.847353 243.798493 161.847353 
C 243.798493 161.847353 243.798493 161.847353 243.798493 161.847353 
C 243.798493 161.847353 243.798493 161.847353 243.798493 161.847353 
C 243.798493 161.847353 243.798493 161.847353 243.798493 161.847353 
C 243.798493 161.847353 243.798493 161.847353 243.798493 161.847353 
C 243.798493 161.847353 243.798493 161.847353 243.798493 161.847353 
C 243.798493 161.847353 243.798493 161.847353 243.798493 161.847353 
z
" style="fill:#440154;fill-opacity:0.5;stroke:#440154;stroke-opacity:0.5;"/>
    <path clip-path="url(#p502e999a1b)" d="M 253.22002 182.242721 
C 253.22002 182.242721 253.22002 182.242721 253.22002 182.242721 
C 253.22002 182.242721 253.22002 182.242721 253.22002 182.242721 
C 253.22002 182.242721 253.22002 182.242721 253.22002 182.242721 
C 253.22002 182.242721 253.22002 182.242721 253.22002 182.242721 
C 253.22002 182.242721 253.22002 182.242721 253.22002 182.242721 
C 253.22002 182.242721 253.22002 182.242721 253.22002 182.242721 
C 253.22002 182.242721 253.22002 182.242721 253.22002 182.242721 
C 253.22002 182.242721 253.22002 182.242721 253.22002 182.242721 
z
" style="fill:#440154;fill-opacity:0.5;stroke:#440154;stroke-opacity:0.5;"/>
    <path clip-path="url(#p502e999a1b)" d="M 262.641547 110.858934 
C 262.641547 110.858934 262.641547 110.858934 262.641547 110.858934 
C 262.641547 110.858934 262.641547 110.858934 262.641547 110.858934 
C 262.641547 110.858934 262.641547 110.858934 262.641547 110.858934 
C 262.641547 110.858934 262.641547 110.858934 262.641547 110.858934 
C 262.641547 110.858934 262.641547 110.858934 262.641547 110.858934 
C 262.641547 110.858934 262.641547 110.858934 262.641547 110.858934 
C 262.641547 110.858934 262.641547 110.858934 262.641547 110.858934 
C 262.641547 110.858934 262.641547 110.858934 262.641547 110.858934 
z
" style="fill:#440154;fill-opacity:0.5;stroke:#440154;stroke-opacity:0.5;"/>
    <path clip-path="url(#p502e999a1b)" d="M 272.063073 134.823017 
C 275.713965 134.823017 279.215817 133.372503 281.797388 130.790932 
C 284.378958 128.209362 285.829473 124.70751 285.829473 121.056618 
C 285.829473 117.405726 284.378958 113.903874 281.797388 111.322304 
C 279.215817 108.740734 275.713965 107.290219 272.063073 107.290219 
C 268.412182 107.290219 264.910329 108.740734 262.328759 111.322304 
C 259.747189 113.903874 258.296674 117.405726 258.296674 121.056618 
C 258.296674 124.70751 259.747189 128.209362 262.328759 130.790932 
C 264.910329 133.372503 268.412182 134.823017 272.063073 134.823017 
z
" style="fill:#482878;fill-opacity:0.5;stroke:#482878;stroke-opacity:0.5;"/>
    <path clip-path="url(#p502e999a1b)" d="M 281.4846 134.364473 
C 285.013885 134.364473 288.399094 132.962273 290.894675 130.466693 
C 293.390256 127.971112 294.792455 124.585903 294.792455 121.056618 
C 294.792455 117.527334 293.390256 114.142125 290.894675 111.646544 
C 288.399094 109.150963 285.013885 107.748763 281.4846 107.748763 
C 277.955316 107.748763 274.570107 109.150963 272.074526 111.646544 
C 269.578945 114.142125 268.176745 117.527334 268.176745 121.056618 
C 268.176745 124.585903 269.578945 127.971112 272.074526 130.466693 
C 274.570107 132.962273 277.955316 134.364473 281.4846 134.364473 
z
" style="fill:#482878;fill-opacity:0.5;stroke:#482878;stroke-opacity:0.5;"/>
    <path clip-path="url(#p502e999a1b)" d="M 290.906127 64.969357 
C 290.906127 64.969357 290.906127 64.969357 290.906127 64.969357 
C 290.906127 64.969357 290.906127 64.969357 290.906127 64.969357 
C 290.906127 64.969357 290.906127 64.969357 290.906127 64.969357 
C 290.906127 64.969357 290.906127 64.969357 290.906127 64.969357 
C 290.906127 64.969357 290.906127 64.969357 290.906127 64.969357 
C 290.906127 64.969357 290.906127 64.969357 290.906127 64.969357 
C 290.906127 64.969357 290.906127 64.969357 290.906127 64.969357 
C 290.906127 64.969357 290.906127 64.969357 290.906127 64.969357 
z
" style="fill:#440154;fill-opacity:0.5;stroke:#440154;stroke-opacity:0.5;"/>
    <path clip-path="url(#p502e999a1b)" d="M 300.327654 103.062409 
C 302.316677 103.062409 304.224503 102.272161 305.630955 100.865709 
C 307.037407 99.459258 307.827654 97.551432 307.827654 95.562409 
C 307.827654 93.573385 307.037407 91.66556 305.630955 90.259108 
C 304.224503 88.852656 302.316677 88.062409 300.327654 88.062409 
C 298.338631 88.062409 296.430805 88.852656 295.024353 90.259108 
C 293.617901 91.66556 292.827654 93.573385 292.827654 95.562409 
C 292.827654 97.551432 293.617901 99.459258 295.024353 100.865709 
C 296.430805 102.272161 298.338631 103.062409 300.327654 103.062409 
z
" style="fill:#3e4989;fill-opacity:0.5;stroke:#3e4989;stroke-opacity:0.5;"/>
    <path clip-path="url(#p502e999a1b)" d="M 309.749181 131.3401 
C 312.476392 131.3401 315.092271 130.256568 317.020701 128.328138 
C 318.94913 126.399708 320.032663 123.783829 320.032663 121.056618 
C 320.032663 118.329407 318.94913 115.713528 317.020701 113.785098 
C 315.092271 111.856669 312.476392 110.773136 309.749181 110.773136 
C 307.02197 110.773136 304.406091 111.856669 302.477661 113.785098 
C 300.549231 115.713528 299.465699 118.329407 299.465699 121.056618 
C 299.465699 123.783829 300.549231 126.399708 302.477661 128.328138 
C 304.406091 130.256568 307.02197 131.3401 309.749181 131.3401 
z
" style="fill:#31688e;fill-opacity:0.5;stroke:#31688e;stroke-opacity:0.5;"/>
    <path clip-path="url(#p502e999a1b)" d="M 319.170708 192.440405 
C 319.170708 192.440405 319.170708 192.440405 319.170708 192.440405 
C 319.170708 192.440405 319.170708 192.440405 319.170708 192.440405 
C 319.170708 192.440405 319.170708 192.440405 319.170708 192.440405 
C 319.170708 192.440405 319.170708 192.440405 319.170708 192.440405 
C 319.170708 192.440405 319.170708 192.440405 319.170708 192.440405 
C 319.170708 192.440405 319.170708 192.440405 319.170708 192.440405 
C 319.170708 192.440405 319.170708 192.440405 319.170708 192.440405 
C 319.170708 192.440405 319.170708 192.440405 319.170708 192.440405 
z
" style="fill:#440154;fill-opacity:0.5;stroke:#440154;stroke-opacity:0.5;"/>
    <path clip-path="url(#p502e999a1b)" d="M 328.592234 192.305027 
C 331.260789 192.305027 333.820406 191.244799 335.707359 189.357846 
C 337.594312 187.470893 338.65454 184.911276 338.65454 182.242721 
C 338.65454 179.574166 337.594312 177.01455 335.707359 175.127596 
C 333.820406 173.240643 331.260789 172.180415 328.592234 172.180415 
C 325.92368 172.180415 323.364063 173.240643 321.47711 175.127596 
C 319.590157 177.01455 318.529929 179.574166 318.529929 182.242721 
C 318.529929 184.911276 319.590157 187.470893 321.47711 189.357846 
C 323.364063 191.244799 325.92368 192.305027 328.592234 192.305027 
z
" style="fill:#31688e;fill-opacity:0.5;stroke:#31688e;stroke-opacity:0.5;"/>
    <path clip-path="url(#p502e999a1b)" d="M 338.013761 151.64967 
C 338.013761 151.64967 338.013761 151.64967 338.013761 151.64967 
C 338.013761 151.64967 338.013761 151.64967 338.013761 151.64967 
C 338.013761 151.64967 338.013761 151.64967 338.013761 151.64967 
C 338.013761 151.64967 338.013761 151.64967 338.013761 151.64967 
C 338.013761 151.64967 338.013761 151.64967 338.013761 151.64967 
C 338.013761 151.64967 338.013761 151.64967 338.013761 151.64967 
C 338.013761 151.64967 338.013761 151.64967 338.013761 151.64967 
C 338.013761 151.64967 338.013761 151.64967 338.013761 151.64967 
z
" style="fill:#440154;fill-opacity:0.5;stroke:#440154;stroke-opacity:0.5;"/>
    <path clip-path="url(#p502e999a1b)" d="M 347.435288 163.5327 
C 351.938933 163.5327 356.258727 161.743383 359.443285 158.558825 
C 362.627844 155.374267 364.417161 151.054473 364.417161 146.550828 
C 364.417161 142.047182 362.627844 137.727389 359.443285 134.54283 
C 356.258727 131.358272 351.938933 129.568955 347.435288 129.568955 
C 342.931643 129.568955 338.611849 131.358272 335.427291 134.54283 
C 332.242733 137.727389 330.453415 142.047182 330.453415 146.550828 
C 330.453415 151.054473 332.242733 155.374267 335.427291 158.558825 
C 338.611849 161.743383 342.931643 163.5327 347.435288 163.5327 
z
" style="fill:#482878;fill-opacity:0.5;stroke:#482878;stroke-opacity:0.5;"/>
    <path clip-path="url(#p502e999a1b)" d="M 356.856815 194.336108 
C 360.064019 194.336108 363.140295 193.061872 365.408131 190.794037 
C 367.675966 188.526201 368.950202 185.449925 368.950202 182.242721 
C 368.950202 179.035517 367.675966 175.959241 365.408131 173.691405 
C 363.140295 171.42357 360.064019 170.149334 356.856815 170.149334 
C 353.649611 170.149334 350.573335 171.42357 348.305499 173.691405 
C 346.037664 175.959241 344.763428 179.035517 344.763428 182.242721 
C 344.763428 185.449925 346.037664 188.526201 348.305499 190.794037 
C 350.573335 193.061872 353.649611 194.336108 356.856815 194.336108 
z
" style="fill:#31688e;fill-opacity:0.5;stroke:#31688e;stroke-opacity:0.5;"/>
    <path clip-path="url(#p502e999a1b)" d="M 366.278342 213.073483 
C 370.398069 213.073483 374.349618 211.436698 377.262706 208.523611 
C 380.175793 205.610523 381.812578 201.658975 381.812578 197.539247 
C 381.812578 193.419519 380.175793 189.46797 377.262706 186.554883 
C 374.349618 183.641796 370.398069 182.00501 366.278342 182.00501 
C 362.158614 182.00501 358.207065 183.641796 355.293978 186.554883 
C 352.380891 189.46797 350.744105 193.419519 350.744105 197.539247 
C 350.744105 201.658975 352.380891 205.610523 355.293978 208.523611 
C 358.207065 211.436698 362.158614 213.073483 366.278342 213.073483 
z
" style="fill:#6ece58;fill-opacity:0.5;stroke:#6ece58;stroke-opacity:0.5;"/>
    <path clip-path="url(#p502e999a1b)" d="M 375.699869 202.638089 
C 375.699869 202.638089 375.699869 202.638089 375.699869 202.638089 
C 375.699869 202.638089 375.699869 202.638089 375.699869 202.638089 
C 375.699869 202.638089 375.699869 202.638089 375.699869 202.638089 
C 375.699869 202.638089 375.699869 202.638089 375.699869 202.638089 
C 375.699869 202.638089 375.699869 202.638089 375.699869 202.638089 
C 375.699869 202.638089 375.699869 202.638089 375.699869 202.638089 
C 375.699869 202.638089 375.699869 202.638089 375.699869 202.638089 
C 375.699869 202.638089 375.699869 202.638089 375.699869 202.638089 
z
" style="fill:#440154;fill-opacity:0.5;stroke:#440154;stroke-opacity:0.5;"/>
    <path clip-path="url(#p502e999a1b)" d="M 385.121396 201.62707 
C 390.262185 201.62707 395.193113 199.584613 398.8282 195.949526 
C 402.463288 192.314439 404.505745 187.383511 404.505745 182.242721 
C 404.505745 177.101932 402.463288 172.171003 398.8282 168.535916 
C 395.193113 164.900829 390.262185 162.858372 385.121396 162.858372 
C 379.980606 162.858372 375.049678 164.900829 371.414591 168.535916 
C 367.779504 172.171003 365.737046 177.101932 365.737046 182.242721 
C 365.737046 187.383511 367.779504 192.314439 371.414591 195.949526 
C 375.049678 199.584613 379.980606 201.62707 385.121396 201.62707 
z
" style="fill:#fde725;fill-opacity:0.5;stroke:#fde725;stroke-opacity:0.5;"/>
    <path clip-path="url(#p502e999a1b)" d="M 394.542922 161.847353 
C 394.542922 161.847353 394.542922 161.847353 394.542922 161.847353 
C 394.542922 161.847353 394.542922 161.847353 394.542922 161.847353 
C 394.542922 161.847353 394.542922 161.847353 394.542922 161.847353 
C 394.542922 161.847353 394.542922 161.847353 394.542922 161.847353 
C 394.542922 161.847353 394.542922 161.847353 394.542922 161.847353 
C 394.542922 161.847353 394.542922 161.847353 394.542922 161.847353 
C 394.542922 161.847353 394.542922 161.847353 394.542922 161.847353 
C 394.542922 161.847353 394.542922 161.847353 394.542922 161.847353 
z
" style="fill:#440154;fill-opacity:0.5;stroke:#440154;stroke-opacity:0.5;"/>
   </g>
   <g id="matplotlib.axis_1">
    <g id="xtick_1">
     <g id="line2d_1">
      <defs>
       <path d="M 0 0 
L 0 3.5 
" id="m38d4e7c3f6" style="stroke:#000000;stroke-width:0.8;"/>
      </defs>
      <g>
       <use style="stroke:#000000;stroke-width:0.8;" x="74.21101" xlink:href="#m38d4e7c3f6" y="307.584"/>
      </g>
     </g>
     <g id="text_1">
      <!-- 0 -->
      <defs>
       <path d="M 31.78125 66.40625 
Q 24.171875 66.40625 20.328125 58.90625 
Q 16.5 51.421875 16.5 36.375 
Q 16.5 21.390625 20.328125 13.890625 
Q 24.171875 6.390625 31.78125 6.390625 
Q 39.453125 6.390625 43.28125 13.890625 
Q 47.125 21.390625 47.125 36.375 
Q 47.125 51.421875 43.28125 58.90625 
Q 39.453125 66.40625 31.78125 66.40625 
z
M 31.78125 74.21875 
Q 44.046875 74.21875 50.515625 64.515625 
Q 56.984375 54.828125 56.984375 36.375 
Q 56.984375 17.96875 50.515625 8.265625 
Q 44.046875 -1.421875 31.78125 -1.421875 
Q 19.53125 -1.421875 13.0625 8.265625 
Q 6.59375 17.96875 6.59375 36.375 
Q 6.59375 54.828125 13.0625 64.515625 
Q 19.53125 74.21875 31.78125 74.21875 
z
" id="DejaVuSans-48"/>
      </defs>
      <g transform="translate(71.02976 322.182437)scale(0.1 -0.1)">
       <use xlink:href="#DejaVuSans-48"/>
      </g>
     </g>
    </g>
    <g id="xtick_2">
     <g id="line2d_2">
      <g>
       <use style="stroke:#000000;stroke-width:0.8;" x="121.318644" xlink:href="#m38d4e7c3f6" y="307.584"/>
      </g>
     </g>
     <g id="text_2">
      <!-- 5 -->
      <defs>
       <path d="M 10.796875 72.90625 
L 49.515625 72.90625 
L 49.515625 64.59375 
L 19.828125 64.59375 
L 19.828125 46.734375 
Q 21.96875 47.46875 24.109375 47.828125 
Q 26.265625 48.1875 28.421875 48.1875 
Q 40.625 48.1875 47.75 41.5 
Q 54.890625 34.8125 54.890625 23.390625 
Q 54.890625 11.625 47.5625 5.09375 
Q 40.234375 -1.421875 26.90625 -1.421875 
Q 22.3125 -1.421875 17.546875 -0.640625 
Q 12.796875 0.140625 7.71875 1.703125 
L 7.71875 11.625 
Q 12.109375 9.234375 16.796875 8.0625 
Q 21.484375 6.890625 26.703125 6.890625 
Q 35.15625 6.890625 40.078125 11.328125 
Q 45.015625 15.765625 45.015625 23.390625 
Q 45.015625 31 40.078125 35.4375 
Q 35.15625 39.890625 26.703125 39.890625 
Q 22.75 39.890625 18.8125 39.015625 
Q 14.890625 38.140625 10.796875 36.28125 
z
" id="DejaVuSans-53"/>
      </defs>
      <g transform="translate(118.137394 322.182437)scale(0.1 -0.1)">
       <use xlink:href="#DejaVuSans-53"/>
      </g>
     </g>
    </g>
    <g id="xtick_3">
     <g id="line2d_3">
      <g>
       <use style="stroke:#000000;stroke-width:0.8;" x="168.426278" xlink:href="#m38d4e7c3f6" y="307.584"/>
      </g>
     </g>
     <g id="text_3">
      <!-- 10 -->
      <defs>
       <path d="M 12.40625 8.296875 
L 28.515625 8.296875 
L 28.515625 63.921875 
L 10.984375 60.40625 
L 10.984375 69.390625 
L 28.421875 72.90625 
L 38.28125 72.90625 
L 38.28125 8.296875 
L 54.390625 8.296875 
L 54.390625 0 
L 12.40625 0 
z
" id="DejaVuSans-49"/>
      </defs>
      <g transform="translate(162.063778 322.182437)scale(0.1 -0.1)">
       <use xlink:href="#DejaVuSans-49"/>
       <use x="63.623047" xlink:href="#DejaVuSans-48"/>
      </g>
     </g>
    </g>
    <g id="xtick_4">
     <g id="line2d_4">
      <g>
       <use style="stroke:#000000;stroke-width:0.8;" x="215.533912" xlink:href="#m38d4e7c3f6" y="307.584"/>
      </g>
     </g>
     <g id="text_4">
      <!-- 15 -->
      <g transform="translate(209.171412 322.182437)scale(0.1 -0.1)">
       <use xlink:href="#DejaVuSans-49"/>
       <use x="63.623047" xlink:href="#DejaVuSans-53"/>
      </g>
     </g>
    </g>
    <g id="xtick_5">
     <g id="line2d_5">
      <g>
       <use style="stroke:#000000;stroke-width:0.8;" x="262.641547" xlink:href="#m38d4e7c3f6" y="307.584"/>
      </g>
     </g>
     <g id="text_5">
      <!-- 20 -->
      <defs>
       <path d="M 19.1875 8.296875 
L 53.609375 8.296875 
L 53.609375 0 
L 7.328125 0 
L 7.328125 8.296875 
Q 12.9375 14.109375 22.625 23.890625 
Q 32.328125 33.6875 34.8125 36.53125 
Q 39.546875 41.84375 41.421875 45.53125 
Q 43.3125 49.21875 43.3125 52.78125 
Q 43.3125 58.59375 39.234375 62.25 
Q 35.15625 65.921875 28.609375 65.921875 
Q 23.96875 65.921875 18.8125 64.3125 
Q 13.671875 62.703125 7.8125 59.421875 
L 7.8125 69.390625 
Q 13.765625 71.78125 18.9375 73 
Q 24.125 74.21875 28.421875 74.21875 
Q 39.75 74.21875 46.484375 68.546875 
Q 53.21875 62.890625 53.21875 53.421875 
Q 53.21875 48.921875 51.53125 44.890625 
Q 49.859375 40.875 45.40625 35.40625 
Q 44.1875 33.984375 37.640625 27.21875 
Q 31.109375 20.453125 19.1875 8.296875 
z
" id="DejaVuSans-50"/>
      </defs>
      <g transform="translate(256.279047 322.182437)scale(0.1 -0.1)">
       <use xlink:href="#DejaVuSans-50"/>
       <use x="63.623047" xlink:href="#DejaVuSans-48"/>
      </g>
     </g>
    </g>
    <g id="xtick_6">
     <g id="line2d_6">
      <g>
       <use style="stroke:#000000;stroke-width:0.8;" x="309.749181" xlink:href="#m38d4e7c3f6" y="307.584"/>
      </g>
     </g>
     <g id="text_6">
      <!-- 25 -->
      <g transform="translate(303.386681 322.182437)scale(0.1 -0.1)">
       <use xlink:href="#DejaVuSans-50"/>
       <use x="63.623047" xlink:href="#DejaVuSans-53"/>
      </g>
     </g>
    </g>
    <g id="xtick_7">
     <g id="line2d_7">
      <g>
       <use style="stroke:#000000;stroke-width:0.8;" x="356.856815" xlink:href="#m38d4e7c3f6" y="307.584"/>
      </g>
     </g>
     <g id="text_7">
      <!-- 30 -->
      <defs>
       <path d="M 40.578125 39.3125 
Q 47.65625 37.796875 51.625 33 
Q 55.609375 28.21875 55.609375 21.1875 
Q 55.609375 10.40625 48.1875 4.484375 
Q 40.765625 -1.421875 27.09375 -1.421875 
Q 22.515625 -1.421875 17.65625 -0.515625 
Q 12.796875 0.390625 7.625 2.203125 
L 7.625 11.71875 
Q 11.71875 9.328125 16.59375 8.109375 
Q 21.484375 6.890625 26.8125 6.890625 
Q 36.078125 6.890625 40.9375 10.546875 
Q 45.796875 14.203125 45.796875 21.1875 
Q 45.796875 27.640625 41.28125 31.265625 
Q 36.765625 34.90625 28.71875 34.90625 
L 20.21875 34.90625 
L 20.21875 43.015625 
L 29.109375 43.015625 
Q 36.375 43.015625 40.234375 45.921875 
Q 44.09375 48.828125 44.09375 54.296875 
Q 44.09375 59.90625 40.109375 62.90625 
Q 36.140625 65.921875 28.71875 65.921875 
Q 24.65625 65.921875 20.015625 65.03125 
Q 15.375 64.15625 9.8125 62.3125 
L 9.8125 71.09375 
Q 15.4375 72.65625 20.34375 73.4375 
Q 25.25 74.21875 29.59375 74.21875 
Q 40.828125 74.21875 47.359375 69.109375 
Q 53.90625 64.015625 53.90625 55.328125 
Q 53.90625 49.265625 50.4375 45.09375 
Q 46.96875 40.921875 40.578125 39.3125 
z
" id="DejaVuSans-51"/>
      </defs>
      <g transform="translate(350.494315 322.182437)scale(0.1 -0.1)">
       <use xlink:href="#DejaVuSans-51"/>
       <use x="63.623047" xlink:href="#DejaVuSans-48"/>
      </g>
     </g>
    </g>
    <g id="xtick_8">
     <g id="line2d_8">
      <g>
       <use style="stroke:#000000;stroke-width:0.8;" x="403.964449" xlink:href="#m38d4e7c3f6" y="307.584"/>
      </g>
     </g>
     <g id="text_8">
      <!-- 35 -->
      <g transform="translate(397.601949 322.182437)scale(0.1 -0.1)">
       <use xlink:href="#DejaVuSans-51"/>
       <use x="63.623047" xlink:href="#DejaVuSans-53"/>
      </g>
     </g>
    </g>
    <g id="text_9">
     <!-- Dias -->
     <defs>
      <path d="M 19.671875 64.796875 
L 19.671875 8.109375 
L 31.59375 8.109375 
Q 46.6875 8.109375 53.6875 14.9375 
Q 60.6875 21.78125 60.6875 36.53125 
Q 60.6875 51.171875 53.6875 57.984375 
Q 46.6875 64.796875 31.59375 64.796875 
z
M 9.8125 72.90625 
L 30.078125 72.90625 
Q 51.265625 72.90625 61.171875 64.09375 
Q 71.09375 55.28125 71.09375 36.53125 
Q 71.09375 17.671875 61.125 8.828125 
Q 51.171875 0 30.078125 0 
L 9.8125 0 
z
" id="DejaVuSans-68"/>
      <path d="M 9.421875 54.6875 
L 18.40625 54.6875 
L 18.40625 0 
L 9.421875 0 
z
M 9.421875 75.984375 
L 18.40625 75.984375 
L 18.40625 64.59375 
L 9.421875 64.59375 
z
" id="DejaVuSans-105"/>
      <path d="M 34.28125 27.484375 
Q 23.390625 27.484375 19.1875 25 
Q 14.984375 22.515625 14.984375 16.5 
Q 14.984375 11.71875 18.140625 8.90625 
Q 21.296875 6.109375 26.703125 6.109375 
Q 34.1875 6.109375 38.703125 11.40625 
Q 43.21875 16.703125 43.21875 25.484375 
L 43.21875 27.484375 
z
M 52.203125 31.203125 
L 52.203125 0 
L 43.21875 0 
L 43.21875 8.296875 
Q 40.140625 3.328125 35.546875 0.953125 
Q 30.953125 -1.421875 24.3125 -1.421875 
Q 15.921875 -1.421875 10.953125 3.296875 
Q 6 8.015625 6 15.921875 
Q 6 25.140625 12.171875 29.828125 
Q 18.359375 34.515625 30.609375 34.515625 
L 43.21875 34.515625 
L 43.21875 35.40625 
Q 43.21875 41.609375 39.140625 45 
Q 35.0625 48.390625 27.6875 48.390625 
Q 23 48.390625 18.546875 47.265625 
Q 14.109375 46.140625 10.015625 43.890625 
L 10.015625 52.203125 
Q 14.9375 54.109375 19.578125 55.046875 
Q 24.21875 56 28.609375 56 
Q 40.484375 56 46.34375 49.84375 
Q 52.203125 43.703125 52.203125 31.203125 
z
" id="DejaVuSans-97"/>
      <path d="M 44.28125 53.078125 
L 44.28125 44.578125 
Q 40.484375 46.53125 36.375 47.5 
Q 32.28125 48.484375 27.875 48.484375 
Q 21.1875 48.484375 17.84375 46.4375 
Q 14.5 44.390625 14.5 40.28125 
Q 14.5 37.15625 16.890625 35.375 
Q 19.28125 33.59375 26.515625 31.984375 
L 29.59375 31.296875 
Q 39.15625 29.25 43.1875 25.515625 
Q 47.21875 21.78125 47.21875 15.09375 
Q 47.21875 7.46875 41.1875 3.015625 
Q 35.15625 -1.421875 24.609375 -1.421875 
Q 20.21875 -1.421875 15.453125 -0.5625 
Q 10.6875 0.296875 5.421875 2 
L 5.421875 11.28125 
Q 10.40625 8.6875 15.234375 7.390625 
Q 20.0625 6.109375 24.8125 6.109375 
Q 31.15625 6.109375 34.5625 8.28125 
Q 37.984375 10.453125 37.984375 14.40625 
Q 37.984375 18.0625 35.515625 20.015625 
Q 33.0625 21.96875 24.703125 23.78125 
L 21.578125 24.515625 
Q 13.234375 26.265625 9.515625 29.90625 
Q 5.8125 33.546875 5.8125 39.890625 
Q 5.8125 47.609375 11.28125 51.796875 
Q 16.75 56 26.8125 56 
Q 31.78125 56 36.171875 55.265625 
Q 40.578125 54.546875 44.28125 53.078125 
z
" id="DejaVuSans-115"/>
     </defs>
     <g transform="translate(225.252187 335.860562)scale(0.1 -0.1)">
      <use xlink:href="#DejaVuSans-68"/>
      <use x="77.001953" xlink:href="#DejaVuSans-105"/>
      <use x="104.785156" xlink:href="#DejaVuSans-97"/>
      <use x="166.064453" xlink:href="#DejaVuSans-115"/>
     </g>
    </g>
   </g>
   <g id="matplotlib.axis_2">
    <g id="ytick_1">
     <g id="line2d_9">
      <defs>
       <path d="M 0 0 
L -3.5 0 
" id="mfc8c8d9545" style="stroke:#000000;stroke-width:0.8;"/>
      </defs>
      <g>
       <use style="stroke:#000000;stroke-width:0.8;" x="57.6" xlink:href="#mfc8c8d9545" y="304.614927"/>
      </g>
     </g>
     <g id="text_10">
      <!-- 94 -->
      <defs>
       <path d="M 10.984375 1.515625 
L 10.984375 10.5 
Q 14.703125 8.734375 18.5 7.8125 
Q 22.3125 6.890625 25.984375 6.890625 
Q 35.75 6.890625 40.890625 13.453125 
Q 46.046875 20.015625 46.78125 33.40625 
Q 43.953125 29.203125 39.59375 26.953125 
Q 35.25 24.703125 29.984375 24.703125 
Q 19.046875 24.703125 12.671875 31.3125 
Q 6.296875 37.9375 6.296875 49.421875 
Q 6.296875 60.640625 12.9375 67.421875 
Q 19.578125 74.21875 30.609375 74.21875 
Q 43.265625 74.21875 49.921875 64.515625 
Q 56.59375 54.828125 56.59375 36.375 
Q 56.59375 19.140625 48.40625 8.859375 
Q 40.234375 -1.421875 26.421875 -1.421875 
Q 22.703125 -1.421875 18.890625 -0.6875 
Q 15.09375 0.046875 10.984375 1.515625 
z
M 30.609375 32.421875 
Q 37.25 32.421875 41.125 36.953125 
Q 45.015625 41.5 45.015625 49.421875 
Q 45.015625 57.28125 41.125 61.84375 
Q 37.25 66.40625 30.609375 66.40625 
Q 23.96875 66.40625 20.09375 61.84375 
Q 16.21875 57.28125 16.21875 49.421875 
Q 16.21875 41.5 20.09375 36.953125 
Q 23.96875 32.421875 30.609375 32.421875 
z
" id="DejaVuSans-57"/>
       <path d="M 37.796875 64.3125 
L 12.890625 25.390625 
L 37.796875 25.390625 
z
M 35.203125 72.90625 
L 47.609375 72.90625 
L 47.609375 25.390625 
L 58.015625 25.390625 
L 58.015625 17.1875 
L 47.609375 17.1875 
L 47.609375 0 
L 37.796875 0 
L 37.796875 17.1875 
L 4.890625 17.1875 
L 4.890625 26.703125 
z
" id="DejaVuSans-52"/>
      </defs>
      <g transform="translate(37.875 308.414146)scale(0.1 -0.1)">
       <use xlink:href="#DejaVuSans-57"/>
       <use x="63.623047" xlink:href="#DejaVuSans-52"/>
      </g>
     </g>
    </g>
    <g id="ytick_2">
     <g id="line2d_10">
      <g>
       <use style="stroke:#000000;stroke-width:0.8;" x="57.6" xlink:href="#mfc8c8d9545" y="253.626508"/>
      </g>
     </g>
     <g id="text_11">
      <!-- 95 -->
      <g transform="translate(37.875 257.425727)scale(0.1 -0.1)">
       <use xlink:href="#DejaVuSans-57"/>
       <use x="63.623047" xlink:href="#DejaVuSans-53"/>
      </g>
     </g>
    </g>
    <g id="ytick_3">
     <g id="line2d_11">
      <g>
       <use style="stroke:#000000;stroke-width:0.8;" x="57.6" xlink:href="#mfc8c8d9545" y="202.638089"/>
      </g>
     </g>
     <g id="text_12">
      <!-- 96 -->
      <defs>
       <path d="M 33.015625 40.375 
Q 26.375 40.375 22.484375 35.828125 
Q 18.609375 31.296875 18.609375 23.390625 
Q 18.609375 15.53125 22.484375 10.953125 
Q 26.375 6.390625 33.015625 6.390625 
Q 39.65625 6.390625 43.53125 10.953125 
Q 47.40625 15.53125 47.40625 23.390625 
Q 47.40625 31.296875 43.53125 35.828125 
Q 39.65625 40.375 33.015625 40.375 
z
M 52.59375 71.296875 
L 52.59375 62.3125 
Q 48.875 64.0625 45.09375 64.984375 
Q 41.3125 65.921875 37.59375 65.921875 
Q 27.828125 65.921875 22.671875 59.328125 
Q 17.53125 52.734375 16.796875 39.40625 
Q 19.671875 43.65625 24.015625 45.921875 
Q 28.375 48.1875 33.59375 48.1875 
Q 44.578125 48.1875 50.953125 41.515625 
Q 57.328125 34.859375 57.328125 23.390625 
Q 57.328125 12.15625 50.6875 5.359375 
Q 44.046875 -1.421875 33.015625 -1.421875 
Q 20.359375 -1.421875 13.671875 8.265625 
Q 6.984375 17.96875 6.984375 36.375 
Q 6.984375 53.65625 15.1875 63.9375 
Q 23.390625 74.21875 37.203125 74.21875 
Q 40.921875 74.21875 44.703125 73.484375 
Q 48.484375 72.75 52.59375 71.296875 
z
" id="DejaVuSans-54"/>
      </defs>
      <g transform="translate(37.875 206.437308)scale(0.1 -0.1)">
       <use xlink:href="#DejaVuSans-57"/>
       <use x="63.623047" xlink:href="#DejaVuSans-54"/>
      </g>
     </g>
    </g>
    <g id="ytick_4">
     <g id="line2d_12">
      <g>
       <use style="stroke:#000000;stroke-width:0.8;" x="57.6" xlink:href="#mfc8c8d9545" y="151.64967"/>
      </g>
     </g>
     <g id="text_13">
      <!-- 97 -->
      <defs>
       <path d="M 8.203125 72.90625 
L 55.078125 72.90625 
L 55.078125 68.703125 
L 28.609375 0 
L 18.3125 0 
L 43.21875 64.59375 
L 8.203125 64.59375 
z
" id="DejaVuSans-55"/>
      </defs>
      <g transform="translate(37.875 155.448888)scale(0.1 -0.1)">
       <use xlink:href="#DejaVuSans-57"/>
       <use x="63.623047" xlink:href="#DejaVuSans-55"/>
      </g>
     </g>
    </g>
    <g id="ytick_5">
     <g id="line2d_13">
      <g>
       <use style="stroke:#000000;stroke-width:0.8;" x="57.6" xlink:href="#mfc8c8d9545" y="100.661251"/>
      </g>
     </g>
     <g id="text_14">
      <!-- 98 -->
      <defs>
       <path d="M 31.78125 34.625 
Q 24.75 34.625 20.71875 30.859375 
Q 16.703125 27.09375 16.703125 20.515625 
Q 16.703125 13.921875 20.71875 10.15625 
Q 24.75 6.390625 31.78125 6.390625 
Q 38.8125 6.390625 42.859375 10.171875 
Q 46.921875 13.96875 46.921875 20.515625 
Q 46.921875 27.09375 42.890625 30.859375 
Q 38.875 34.625 31.78125 34.625 
z
M 21.921875 38.8125 
Q 15.578125 40.375 12.03125 44.71875 
Q 8.5 49.078125 8.5 55.328125 
Q 8.5 64.0625 14.71875 69.140625 
Q 20.953125 74.21875 31.78125 74.21875 
Q 42.671875 74.21875 48.875 69.140625 
Q 55.078125 64.0625 55.078125 55.328125 
Q 55.078125 49.078125 51.53125 44.71875 
Q 48 40.375 41.703125 38.8125 
Q 48.828125 37.15625 52.796875 32.3125 
Q 56.78125 27.484375 56.78125 20.515625 
Q 56.78125 9.90625 50.3125 4.234375 
Q 43.84375 -1.421875 31.78125 -1.421875 
Q 19.734375 -1.421875 13.25 4.234375 
Q 6.78125 9.90625 6.78125 20.515625 
Q 6.78125 27.484375 10.78125 32.3125 
Q 14.796875 37.15625 21.921875 38.8125 
z
M 18.3125 54.390625 
Q 18.3125 48.734375 21.84375 45.5625 
Q 25.390625 42.390625 31.78125 42.390625 
Q 38.140625 42.390625 41.71875 45.5625 
Q 45.3125 48.734375 45.3125 54.390625 
Q 45.3125 60.0625 41.71875 63.234375 
Q 38.140625 66.40625 31.78125 66.40625 
Q 25.390625 66.40625 21.84375 63.234375 
Q 18.3125 60.0625 18.3125 54.390625 
z
" id="DejaVuSans-56"/>
      </defs>
      <g transform="translate(37.875 104.460469)scale(0.1 -0.1)">
       <use xlink:href="#DejaVuSans-57"/>
       <use x="63.623047" xlink:href="#DejaVuSans-56"/>
      </g>
     </g>
    </g>
    <g id="ytick_6">
     <g id="line2d_14">
      <g>
       <use style="stroke:#000000;stroke-width:0.8;" x="57.6" xlink:href="#mfc8c8d9545" y="49.672831"/>
      </g>
     </g>
     <g id="text_15">
      <!-- 99 -->
      <g transform="translate(37.875 53.47205)scale(0.1 -0.1)">
       <use xlink:href="#DejaVuSans-57"/>
       <use x="63.623047" xlink:href="#DejaVuSans-57"/>
      </g>
     </g>
    </g>
    <g id="text_16">
     <!-- Medida -->
     <defs>
      <path d="M 9.8125 72.90625 
L 24.515625 72.90625 
L 43.109375 23.296875 
L 61.8125 72.90625 
L 76.515625 72.90625 
L 76.515625 0 
L 66.890625 0 
L 66.890625 64.015625 
L 48.09375 14.015625 
L 38.1875 14.015625 
L 19.390625 64.015625 
L 19.390625 0 
L 9.8125 0 
z
" id="DejaVuSans-77"/>
      <path d="M 56.203125 29.59375 
L 56.203125 25.203125 
L 14.890625 25.203125 
Q 15.484375 15.921875 20.484375 11.0625 
Q 25.484375 6.203125 34.421875 6.203125 
Q 39.59375 6.203125 44.453125 7.46875 
Q 49.3125 8.734375 54.109375 11.28125 
L 54.109375 2.78125 
Q 49.265625 0.734375 44.1875 -0.34375 
Q 39.109375 -1.421875 33.890625 -1.421875 
Q 20.796875 -1.421875 13.15625 6.1875 
Q 5.515625 13.8125 5.515625 26.8125 
Q 5.515625 40.234375 12.765625 48.109375 
Q 20.015625 56 32.328125 56 
Q 43.359375 56 49.78125 48.890625 
Q 56.203125 41.796875 56.203125 29.59375 
z
M 47.21875 32.234375 
Q 47.125 39.59375 43.09375 43.984375 
Q 39.0625 48.390625 32.421875 48.390625 
Q 24.90625 48.390625 20.390625 44.140625 
Q 15.875 39.890625 15.1875 32.171875 
z
" id="DejaVuSans-101"/>
      <path d="M 45.40625 46.390625 
L 45.40625 75.984375 
L 54.390625 75.984375 
L 54.390625 0 
L 45.40625 0 
L 45.40625 8.203125 
Q 42.578125 3.328125 38.25 0.953125 
Q 33.9375 -1.421875 27.875 -1.421875 
Q 17.96875 -1.421875 11.734375 6.484375 
Q 5.515625 14.40625 5.515625 27.296875 
Q 5.515625 40.1875 11.734375 48.09375 
Q 17.96875 56 27.875 56 
Q 33.9375 56 38.25 53.625 
Q 42.578125 51.265625 45.40625 46.390625 
z
M 14.796875 27.296875 
Q 14.796875 17.390625 18.875 11.75 
Q 22.953125 6.109375 30.078125 6.109375 
Q 37.203125 6.109375 41.296875 11.75 
Q 45.40625 17.390625 45.40625 27.296875 
Q 45.40625 37.203125 41.296875 42.84375 
Q 37.203125 48.484375 30.078125 48.484375 
Q 22.953125 48.484375 18.875 42.84375 
Q 14.796875 37.203125 14.796875 27.296875 
z
" id="DejaVuSans-100"/>
     </defs>
     <g transform="translate(31.795312 192.720187)rotate(-90)scale(0.1 -0.1)">
      <use xlink:href="#DejaVuSans-77"/>
      <use x="86.279297" xlink:href="#DejaVuSans-101"/>
      <use x="147.802734" xlink:href="#DejaVuSans-100"/>
      <use x="211.279297" xlink:href="#DejaVuSans-105"/>
      <use x="239.0625" xlink:href="#DejaVuSans-100"/>
      <use x="302.539062" xlink:href="#DejaVuSans-97"/>
     </g>
    </g>
   </g>
   <g id="LineCollection_1">
    <path clip-path="url(#p502e999a1b)" d="M 83.632537 173.190976 
L 83.632537 160.701415 
" style="fill:none;stroke:#808080;stroke-opacity:0.75;stroke-width:4;"/>
    <path clip-path="url(#p502e999a1b)" d="M 93.054063 202.308777 
L 93.054063 192.769717 
" style="fill:none;stroke:#808080;stroke-opacity:0.75;stroke-width:4;"/>
    <path clip-path="url(#p502e999a1b)" d="M 102.47559 272.295601 
L 102.47559 265.550467 
" style="fill:none;stroke:#808080;stroke-opacity:0.75;stroke-width:4;"/>
    <path clip-path="url(#p502e999a1b)" d="M 111.897117 288.250548 
L 111.897117 280.188571 
" style="fill:none;stroke:#808080;stroke-opacity:0.75;stroke-width:4;"/>
    <path clip-path="url(#p502e999a1b)" d="M 121.318644 254.408221 
L 121.318644 212.054059 
" style="fill:none;stroke:#808080;stroke-opacity:0.75;stroke-width:4;"/>
    <path clip-path="url(#p502e999a1b)" d="M 130.740171 260.807344 
L 130.740171 205.654936 
" style="fill:none;stroke:#808080;stroke-opacity:0.75;stroke-width:4;"/>
    <path clip-path="url(#p502e999a1b)" d="M 140.161698 200.502382 
L 140.161698 184.378428 
" style="fill:none;stroke:#808080;stroke-opacity:0.75;stroke-width:4;"/>
    <path clip-path="url(#p502e999a1b)" d="M 149.583224 249.731339 
L 149.583224 226.928625 
" style="fill:none;stroke:#808080;stroke-opacity:0.75;stroke-width:4;"/>
    <path clip-path="url(#p502e999a1b)" d="M 159.004751 257.657496 
L 159.004751 249.595519 
" style="fill:none;stroke:#808080;stroke-opacity:0.75;stroke-width:4;"/>
    <path clip-path="url(#p502e999a1b)" d="M 168.426278 272.954022 
L 168.426278 264.892045 
" style="fill:none;stroke:#808080;stroke-opacity:0.75;stroke-width:4;"/>
    <path clip-path="url(#p502e999a1b)" d="M 177.847805 291.983467 
L 177.847805 235.664917 
" style="fill:none;stroke:#808080;stroke-opacity:0.75;stroke-width:4;"/>
    <path clip-path="url(#p502e999a1b)" d="M 187.269332 179.026914 
L 187.269332 165.06316 
" style="fill:none;stroke:#808080;stroke-opacity:0.75;stroke-width:4;"/>
    <path clip-path="url(#p502e999a1b)" d="M 196.690859 245.720701 
L 196.690859 220.741579 
" style="fill:none;stroke:#808080;stroke-opacity:0.75;stroke-width:4;"/>
    <path clip-path="url(#p502e999a1b)" d="M 206.112386 206.3707 
L 206.112386 188.707794 
" style="fill:none;stroke:#808080;stroke-opacity:0.75;stroke-width:4;"/>
    <path clip-path="url(#p502e999a1b)" d="M 215.533912 160.530105 
L 215.533912 122.373866 
" style="fill:none;stroke:#808080;stroke-opacity:0.75;stroke-width:4;"/>
    <path clip-path="url(#p502e999a1b)" d="M 224.955439 94.903785 
L 224.955439 75.825665 
" style="fill:none;stroke:#808080;stroke-opacity:0.75;stroke-width:4;"/>
    <path clip-path="url(#p502e999a1b)" d="M 234.376966 171.397399 
L 234.376966 131.90194 
" style="fill:none;stroke:#808080;stroke-opacity:0.75;stroke-width:4;"/>
    <path clip-path="url(#p502e999a1b)" d="M 243.798493 165.452779 
L 243.798493 158.241928 
" style="fill:none;stroke:#808080;stroke-opacity:0.75;stroke-width:4;"/>
    <path clip-path="url(#p502e999a1b)" d="M 253.22002 197.539247 
L 253.22002 166.946195 
" style="fill:none;stroke:#808080;stroke-opacity:0.75;stroke-width:4;"/>
    <path clip-path="url(#p502e999a1b)" d="M 262.641547 126.574621 
L 262.641547 95.143248 
" style="fill:none;stroke:#808080;stroke-opacity:0.75;stroke-width:4;"/>
    <path clip-path="url(#p502e999a1b)" d="M 272.063073 136.772304 
L 272.063073 105.340932 
" style="fill:none;stroke:#808080;stroke-opacity:0.75;stroke-width:4;"/>
    <path clip-path="url(#p502e999a1b)" d="M 281.4846 140.804348 
L 281.4846 101.308888 
" style="fill:none;stroke:#808080;stroke-opacity:0.75;stroke-width:4;"/>
    <path clip-path="url(#p502e999a1b)" d="M 290.906127 76.370714 
L 290.906127 53.568 
" style="fill:none;stroke:#808080;stroke-opacity:0.75;stroke-width:4;"/>
    <path clip-path="url(#p502e999a1b)" d="M 300.327654 100.661251 
L 300.327654 90.463567 
" style="fill:none;stroke:#808080;stroke-opacity:0.75;stroke-width:4;"/>
    <path clip-path="url(#p502e999a1b)" d="M 309.749181 125.087607 
L 309.749181 117.02563 
" style="fill:none;stroke:#808080;stroke-opacity:0.75;stroke-width:4;"/>
    <path clip-path="url(#p502e999a1b)" d="M 319.170708 202.148311 
L 319.170708 182.732499 
" style="fill:none;stroke:#808080;stroke-opacity:0.75;stroke-width:4;"/>
    <path clip-path="url(#p502e999a1b)" d="M 328.592234 202.154335 
L 328.592234 162.331107 
" style="fill:none;stroke:#808080;stroke-opacity:0.75;stroke-width:4;"/>
    <path clip-path="url(#p502e999a1b)" d="M 338.013761 170.033806 
L 338.013761 133.265534 
" style="fill:none;stroke:#808080;stroke-opacity:0.75;stroke-width:4;"/>
    <path clip-path="url(#p502e999a1b)" d="M 347.435288 154.612805 
L 347.435288 138.488851 
" style="fill:none;stroke:#808080;stroke-opacity:0.75;stroke-width:4;"/>
    <path clip-path="url(#p502e999a1b)" d="M 356.856815 191.781781 
L 356.856815 172.703661 
" style="fill:none;stroke:#808080;stroke-opacity:0.75;stroke-width:4;"/>
    <path clip-path="url(#p502e999a1b)" d="M 366.278342 211.029515 
L 366.278342 184.048979 
" style="fill:none;stroke:#808080;stroke-opacity:0.75;stroke-width:4;"/>
    <path clip-path="url(#p502e999a1b)" d="M 375.699869 221.716208 
L 375.699869 183.559969 
" style="fill:none;stroke:#808080;stroke-opacity:0.75;stroke-width:4;"/>
    <path clip-path="url(#p502e999a1b)" d="M 385.121396 210.631871 
L 385.121396 153.853571 
" style="fill:none;stroke:#808080;stroke-opacity:0.75;stroke-width:4;"/>
    <path clip-path="url(#p502e999a1b)" d="M 394.542922 165.452779 
L 394.542922 158.241928 
" style="fill:none;stroke:#808080;stroke-opacity:0.75;stroke-width:4;"/>
   </g>
   <g id="line2d_15">
    <path clip-path="url(#p502e999a1b)" d="M 83.632537 166.946195 
L 93.054063 197.539247 
L 102.47559 268.923034 
L 111.897117 284.219559 
L 121.318644 233.23114 
L 130.740171 233.23114 
L 140.161698 192.440405 
L 149.583224 238.329982 
L 159.004751 253.626508 
L 168.426278 268.923034 
L 177.847805 263.824192 
L 187.269332 172.045037 
L 196.690859 233.23114 
L 206.112386 197.539247 
L 215.533912 141.451986 
L 224.955439 85.364725 
L 234.376966 151.64967 
L 243.798493 161.847353 
L 253.22002 182.242721 
L 262.641547 110.858934 
L 272.063073 121.056618 
L 281.4846 121.056618 
L 290.906127 64.969357 
L 300.327654 95.562409 
L 309.749181 121.056618 
L 319.170708 192.440405 
L 328.592234 182.242721 
L 338.013761 151.64967 
L 347.435288 146.550828 
L 356.856815 182.242721 
L 366.278342 197.539247 
L 375.699869 202.638089 
L 385.121396 182.242721 
L 394.542922 161.847353 
" style="fill:none;stroke:#1f77b4;stroke-linecap:square;stroke-width:1.5;"/>
   </g>
   <g id="line2d_16">
    <path clip-path="url(#p502e999a1b)" d="M 83.632537 64.969357 
L 93.054063 71.954771 
L 102.47559 78.940184 
L 111.897117 85.925597 
L 121.318644 92.911011 
L 130.740171 99.896424 
L 140.161698 106.881838 
L 149.583224 113.867251 
L 159.004751 120.852664 
L 168.426278 127.838078 
L 177.847805 134.823491 
L 187.269332 141.808905 
L 196.690859 148.794318 
L 206.112386 155.779732 
L 215.533912 162.765145 
L 224.955439 169.750558 
L 234.376966 176.735972 
L 243.798493 183.721385 
L 253.22002 190.706799 
L 262.641547 197.692212 
L 272.063073 204.677626 
L 281.4846 211.663039 
L 290.906127 218.648452 
L 300.327654 225.633866 
L 309.749181 232.619279 
L 319.170708 239.604693 
L 328.592234 246.590106 
L 338.013761 253.575519 
L 347.435288 260.560933 
L 356.856815 267.546346 
L 366.278342 274.53176 
L 375.699869 281.517173 
L 385.121396 288.502587 
L 394.542922 295.488 
" style="fill:none;stroke:#ff7f0e;stroke-linecap:square;stroke-width:1.5;"/>
   </g>
   <g id="patch_3">
    <path d="M 57.6 307.584 
L 57.6 41.472 
" style="fill:none;stroke:#000000;stroke-linecap:square;stroke-linejoin:miter;stroke-width:0.8;"/>
   </g>
   <g id="patch_4">
    <path d="M 414.72 307.584 
L 414.72 41.472 
" style="fill:none;stroke:#000000;stroke-linecap:square;stroke-linejoin:miter;stroke-width:0.8;"/>
   </g>
   <g id="patch_5">
    <path d="M 57.6 307.584 
L 414.72 307.584 
" style="fill:none;stroke:#000000;stroke-linecap:square;stroke-linejoin:miter;stroke-width:0.8;"/>
   </g>
   <g id="patch_6">
    <path d="M 57.6 41.472 
L 414.72 41.472 
" style="fill:none;stroke:#000000;stroke-linecap:square;stroke-linejoin:miter;stroke-width:0.8;"/>
   </g>
   <g id="legend_1">
    <g id="patch_7">
     <path d="M 330.502813 78.847 
L 407.72 78.847 
Q 409.72 78.847 409.72 76.847 
L 409.72 48.472 
Q 409.72 46.472 407.72 46.472 
L 330.502813 46.472 
Q 328.502813 46.472 328.502813 48.472 
L 328.502813 76.847 
Q 328.502813 78.847 330.502813 78.847 
z
" style="fill:#ffffff;opacity:0.8;stroke:#cccccc;stroke-linejoin:miter;"/>
    </g>
    <g id="line2d_17">
     <path d="M 332.502813 54.589188 
L 352.502813 54.589188 
" style="fill:none;stroke:#1f77b4;stroke-linecap:square;stroke-width:1.5;"/>
    </g>
    <g id="line2d_18"/>
    <g id="text_17">
     <!-- Evoluo -->
     <defs>
      <path d="M 9.8125 72.90625 
L 55.90625 72.90625 
L 55.90625 64.59375 
L 19.671875 64.59375 
L 19.671875 43.015625 
L 54.390625 43.015625 
L 54.390625 34.71875 
L 19.671875 34.71875 
L 19.671875 8.296875 
L 56.78125 8.296875 
L 56.78125 0 
L 9.8125 0 
z
" id="DejaVuSans-69"/>
      <path d="M 2.984375 54.6875 
L 12.5 54.6875 
L 29.59375 8.796875 
L 46.6875 54.6875 
L 56.203125 54.6875 
L 35.6875 0 
L 23.484375 0 
z
" id="DejaVuSans-118"/>
      <path d="M 30.609375 48.390625 
Q 23.390625 48.390625 19.1875 42.75 
Q 14.984375 37.109375 14.984375 27.296875 
Q 14.984375 17.484375 19.15625 11.84375 
Q 23.34375 6.203125 30.609375 6.203125 
Q 37.796875 6.203125 41.984375 11.859375 
Q 46.1875 17.53125 46.1875 27.296875 
Q 46.1875 37.015625 41.984375 42.703125 
Q 37.796875 48.390625 30.609375 48.390625 
z
M 30.609375 56 
Q 42.328125 56 49.015625 48.375 
Q 55.71875 40.765625 55.71875 27.296875 
Q 55.71875 13.875 49.015625 6.21875 
Q 42.328125 -1.421875 30.609375 -1.421875 
Q 18.84375 -1.421875 12.171875 6.21875 
Q 5.515625 13.875 5.515625 27.296875 
Q 5.515625 40.765625 12.171875 48.375 
Q 18.84375 56 30.609375 56 
z
" id="DejaVuSans-111"/>
      <path d="M 9.421875 75.984375 
L 18.40625 75.984375 
L 18.40625 0 
L 9.421875 0 
z
" id="DejaVuSans-108"/>
      <path d="M 8.5 21.578125 
L 8.5 54.6875 
L 17.484375 54.6875 
L 17.484375 21.921875 
Q 17.484375 14.15625 20.5 10.265625 
Q 23.53125 6.390625 29.59375 6.390625 
Q 36.859375 6.390625 41.078125 11.03125 
Q 45.3125 15.671875 45.3125 23.6875 
L 45.3125 54.6875 
L 54.296875 54.6875 
L 54.296875 0 
L 45.3125 0 
L 45.3125 8.40625 
Q 42.046875 3.421875 37.71875 1 
Q 33.40625 -1.421875 27.6875 -1.421875 
Q 18.265625 -1.421875 13.375 4.4375 
Q 8.5 10.296875 8.5 21.578125 
z
M 31.109375 56 
z
" id="DejaVuSans-117"/>
      <path d="M 48.78125 52.59375 
L 48.78125 44.1875 
Q 44.96875 46.296875 41.140625 47.34375 
Q 37.3125 48.390625 33.40625 48.390625 
Q 24.65625 48.390625 19.8125 42.84375 
Q 14.984375 37.3125 14.984375 27.296875 
Q 14.984375 17.28125 19.8125 11.734375 
Q 24.65625 6.203125 33.40625 6.203125 
Q 37.3125 6.203125 41.140625 7.25 
Q 44.96875 8.296875 48.78125 10.40625 
L 48.78125 2.09375 
Q 45.015625 0.34375 40.984375 -0.53125 
Q 36.96875 -1.421875 32.421875 -1.421875 
Q 20.0625 -1.421875 12.78125 6.34375 
Q 5.515625 14.109375 5.515625 27.296875 
Q 5.515625 40.671875 12.859375 48.328125 
Q 20.21875 56 33.015625 56 
Q 37.15625 56 41.109375 55.140625 
Q 45.0625 54.296875 48.78125 52.59375 
z
M 36.078125 0 
Q 38.765625 -3.03125 40.078125 -5.59375 
Q 41.40625 -8.15625 41.40625 -10.5 
Q 41.40625 -14.84375 38.46875 -17.0625 
Q 35.546875 -19.28125 29.78125 -19.28125 
Q 27.546875 -19.28125 25.421875 -18.984375 
Q 23.296875 -18.703125 21.1875 -18.109375 
L 21.1875 -11.71875 
Q 22.859375 -12.546875 24.65625 -12.90625 
Q 26.46875 -13.28125 28.765625 -13.28125 
Q 31.640625 -13.28125 33.109375 -12.109375 
Q 34.578125 -10.9375 34.578125 -8.6875 
Q 34.578125 -7.234375 33.515625 -5.109375 
Q 32.46875 -2.984375 30.28125 0 
z
" id="DejaVuSans-231"/>
      <path d="M 34.28125 27.484375 
Q 23.390625 27.484375 19.1875 25 
Q 14.984375 22.515625 14.984375 16.5 
Q 14.984375 11.71875 18.140625 8.90625 
Q 21.296875 6.109375 26.703125 6.109375 
Q 34.1875 6.109375 38.703125 11.40625 
Q 43.21875 16.703125 43.21875 25.484375 
L 43.21875 27.484375 
z
M 52.203125 31.203125 
L 52.203125 0 
L 43.21875 0 
L 43.21875 8.296875 
Q 40.140625 3.328125 35.546875 0.953125 
Q 30.953125 -1.421875 24.3125 -1.421875 
Q 15.921875 -1.421875 10.953125 3.296875 
Q 6 8.015625 6 15.921875 
Q 6 25.140625 12.171875 29.828125 
Q 18.359375 34.515625 30.609375 34.515625 
L 43.21875 34.515625 
L 43.21875 35.40625 
Q 43.21875 41.609375 39.140625 45 
Q 35.0625 48.390625 27.6875 48.390625 
Q 23 48.390625 18.546875 47.265625 
Q 14.109375 46.140625 10.015625 43.890625 
L 10.015625 52.203125 
Q 14.9375 54.109375 19.578125 55.046875 
Q 24.21875 56 28.609375 56 
Q 40.484375 56 46.34375 49.84375 
Q 52.203125 43.703125 52.203125 31.203125 
z
M 28.8125 66.890625 
L 26.03125 69.578125 
Q 24.953125 70.5625 24.140625 71.015625 
Q 23.34375 71.484375 22.703125 71.484375 
Q 20.84375 71.484375 19.96875 69.703125 
Q 19.09375 67.921875 19 63.921875 
L 12.890625 63.921875 
Q 12.984375 70.515625 15.46875 74.09375 
Q 17.96875 77.6875 22.40625 77.6875 
Q 24.265625 77.6875 25.828125 77 
Q 27.390625 76.3125 29.203125 74.703125 
L 31.984375 72.015625 
Q 33.0625 71.046875 33.859375 70.578125 
Q 34.671875 70.125 35.296875 70.125 
Q 37.15625 70.125 38.03125 71.90625 
Q 38.921875 73.6875 39.015625 77.6875 
L 45.125 77.6875 
Q 45.015625 71.09375 42.53125 67.5 
Q 40.046875 63.921875 35.59375 63.921875 
Q 33.734375 63.921875 32.171875 64.59375 
Q 30.609375 65.28125 28.8125 66.890625 
z
" id="DejaVuSans-227"/>
     </defs>
     <g transform="translate(360.502813 58.089188)scale(0.1 -0.1)">
      <use xlink:href="#DejaVuSans-69"/>
      <use x="63.183594" xlink:href="#DejaVuSans-118"/>
      <use x="122.363281" xlink:href="#DejaVuSans-111"/>
      <use x="183.544922" xlink:href="#DejaVuSans-108"/>
      <use x="211.328125" xlink:href="#DejaVuSans-117"/>
      <use x="274.707031" xlink:href="#DejaVuSans-231"/>
      <use x="329.6875" xlink:href="#DejaVuSans-227"/>
      <use x="390.966797" xlink:href="#DejaVuSans-111"/>
     </g>
    </g>
    <g id="line2d_19">
     <path d="M 332.502813 69.267313 
L 352.502813 69.267313 
" style="fill:none;stroke:#ff7f0e;stroke-linecap:square;stroke-width:1.5;"/>
    </g>
    <g id="line2d_20"/>
    <g id="text_18">
     <!-- Objetivo -->
     <defs>
      <path d="M 39.40625 66.21875 
Q 28.65625 66.21875 22.328125 58.203125 
Q 16.015625 50.203125 16.015625 36.375 
Q 16.015625 22.609375 22.328125 14.59375 
Q 28.65625 6.59375 39.40625 6.59375 
Q 50.140625 6.59375 56.421875 14.59375 
Q 62.703125 22.609375 62.703125 36.375 
Q 62.703125 50.203125 56.421875 58.203125 
Q 50.140625 66.21875 39.40625 66.21875 
z
M 39.40625 74.21875 
Q 54.734375 74.21875 63.90625 63.9375 
Q 73.09375 53.65625 73.09375 36.375 
Q 73.09375 19.140625 63.90625 8.859375 
Q 54.734375 -1.421875 39.40625 -1.421875 
Q 24.03125 -1.421875 14.8125 8.828125 
Q 5.609375 19.09375 5.609375 36.375 
Q 5.609375 53.65625 14.8125 63.9375 
Q 24.03125 74.21875 39.40625 74.21875 
z
" id="DejaVuSans-79"/>
      <path d="M 48.6875 27.296875 
Q 48.6875 37.203125 44.609375 42.84375 
Q 40.53125 48.484375 33.40625 48.484375 
Q 26.265625 48.484375 22.1875 42.84375 
Q 18.109375 37.203125 18.109375 27.296875 
Q 18.109375 17.390625 22.1875 11.75 
Q 26.265625 6.109375 33.40625 6.109375 
Q 40.53125 6.109375 44.609375 11.75 
Q 48.6875 17.390625 48.6875 27.296875 
z
M 18.109375 46.390625 
Q 20.953125 51.265625 25.265625 53.625 
Q 29.59375 56 35.59375 56 
Q 45.5625 56 51.78125 48.09375 
Q 58.015625 40.1875 58.015625 27.296875 
Q 58.015625 14.40625 51.78125 6.484375 
Q 45.5625 -1.421875 35.59375 -1.421875 
Q 29.59375 -1.421875 25.265625 0.953125 
Q 20.953125 3.328125 18.109375 8.203125 
L 18.109375 0 
L 9.078125 0 
L 9.078125 75.984375 
L 18.109375 75.984375 
z
" id="DejaVuSans-98"/>
      <path d="M 9.421875 54.6875 
L 18.40625 54.6875 
L 18.40625 -0.984375 
Q 18.40625 -11.421875 14.421875 -16.109375 
Q 10.453125 -20.796875 1.609375 -20.796875 
L -1.8125 -20.796875 
L -1.8125 -13.1875 
L 0.59375 -13.1875 
Q 5.71875 -13.1875 7.5625 -10.8125 
Q 9.421875 -8.453125 9.421875 -0.984375 
z
M 9.421875 75.984375 
L 18.40625 75.984375 
L 18.40625 64.59375 
L 9.421875 64.59375 
z
" id="DejaVuSans-106"/>
      <path d="M 18.3125 70.21875 
L 18.3125 54.6875 
L 36.8125 54.6875 
L 36.8125 47.703125 
L 18.3125 47.703125 
L 18.3125 18.015625 
Q 18.3125 11.328125 20.140625 9.421875 
Q 21.96875 7.515625 27.59375 7.515625 
L 36.8125 7.515625 
L 36.8125 0 
L 27.59375 0 
Q 17.1875 0 13.234375 3.875 
Q 9.28125 7.765625 9.28125 18.015625 
L 9.28125 47.703125 
L 2.6875 47.703125 
L 2.6875 54.6875 
L 9.28125 54.6875 
L 9.28125 70.21875 
z
" id="DejaVuSans-116"/>
     </defs>
     <g transform="translate(360.502813 72.767313)scale(0.1 -0.1)">
      <use xlink:href="#DejaVuSans-79"/>
      <use x="78.710938" xlink:href="#DejaVuSans-98"/>
      <use x="142.1875" xlink:href="#DejaVuSans-106"/>
      <use x="169.970703" xlink:href="#DejaVuSans-101"/>
      <use x="231.494141" xlink:href="#DejaVuSans-116"/>
      <use x="270.703125" xlink:href="#DejaVuSans-105"/>
      <use x="298.486328" xlink:href="#DejaVuSans-118"/>
      <use x="357.666016" xlink:href="#DejaVuSans-111"/>
     </g>
    </g>
   </g>
  </g>
 </g>
 <defs>
  <clipPath id="p502e999a1b">
   <rect height="266.112" width="357.12" x="57.6" y="41.472"/>
  </clipPath>
 </defs>
</svg>
